<?xml version="1.0" encoding="UTF-8"?>
<svg version="1.1" xmlns="http://www.w3.org/2000/svg" width="1080" height="1080">
<path d="M0 0 C0.70780506 -0.00175304 1.41561012 -0.00350607 2.14486381 -0.00531223 C4.52271901 -0.00997362 6.9005131 -0.00750634 9.27837086 -0.00507832 C10.99814953 -0.00694625 12.71792777 -0.00924688 14.43770534 -0.01194364 C19.1689218 -0.01807084 23.90012062 -0.01792694 28.63134015 -0.01674926 C33.73253314 -0.01654547 38.83372043 -0.02206214 43.93491077 -0.02680683 C53.93395855 -0.03512043 63.93300044 -0.03786205 73.93205138 -0.03841921 C82.06440706 -0.0388943 90.1967608 -0.04094874 98.32911587 -0.04411983 C121.39481859 -0.05293056 144.46051665 -0.05753889 167.52622106 -0.05678936 C169.39221372 -0.05672943 169.39221372 -0.05672943 171.29590321 -0.05666828 C173.16418095 -0.05660696 173.16418095 -0.05660696 175.07020167 -0.0565444 C195.23006095 -0.05613845 215.3899015 -0.06569409 235.54975536 -0.07980665 C256.25860915 -0.09418878 276.96745383 -0.10107573 297.67631274 -0.10021287 C309.29886847 -0.0998814 320.92140459 -0.10260633 332.5439558 -0.11339092 C342.44632786 -0.12252039 352.34867145 -0.12465136 362.25104591 -0.1178815 C367.29826963 -0.11462781 372.34543882 -0.11451763 377.39265728 -0.12323475 C382.02504145 -0.13115256 386.65732832 -0.12961498 391.28971026 -0.12095062 C392.95406968 -0.11942709 394.61843655 -0.12118778 396.28278717 -0.12681069 C410.7137569 -0.17228443 425.48734959 0.36698261 439.45386219 4.31613445 C440.62018177 4.63650677 440.62018177 4.63650677 441.81006336 4.96335125 C466.2441955 11.94771509 486.06527755 25.352239 504.89136219 42.12863445 C505.57069813 42.73320477 506.25003407 43.33777508 506.94995594 43.9606657 C539.43494409 74.73181754 559.83975965 125.48614624 561.06836414 169.70090008 C561.09447942 171.31214604 561.11466638 172.92349646 561.12964344 174.53488445 C561.13939198 175.40931194 561.14914051 176.28373943 561.15918446 177.18466473 C561.32758024 196.19739088 561.21548177 214.51305277 556.89136219 233.12863445 C556.70412586 233.97135906 556.51688953 234.81408367 556.32397938 235.68234539 C549.54756258 265.65540831 536.4604235 295.06748072 515.89136219 318.12863445 C514.7138036 319.45121258 514.7138036 319.45121258 513.51245594 320.80050945 C511.98061044 322.50648566 510.44444378 324.20859609 508.90308094 325.9059782 C502.8855773 332.55444339 499.24852476 336.98927659 499.45776844 346.2575407 C500.65124338 354.1602802 507.00085628 359.33281716 512.47339344 364.6403532 C521.48575713 373.91478885 528.36526252 385.03371753 534.89136219 396.12863445 C535.24972157 396.73401043 535.60808094 397.33938641 535.97729969 397.96310711 C554.27782356 429.29243439 561.21167226 465.07868902 561.32886219 500.94113445 C561.33512623 501.83576397 561.34139027 502.73039349 561.34784412 503.65213299 C561.42499335 521.07706443 559.59406785 538.23201832 555.20386219 555.12863445 C554.81931873 556.62124798 554.81931873 556.62124798 554.42700672 558.14401531 C546.81767831 586.6461785 533.26057139 614.441816 512.88354969 636.0153532 C511.05978821 637.94997077 509.38718524 639.9476354 507.70386219 642.00363445 C487.73451814 664.77327733 458.63196894 679.26869619 429.22217274 684.83664227 C423.38284154 685.921345 423.38284154 685.921345 417.89136219 688.12863445 C415.52274059 692.75821303 415.87650306 696.13121229 416.89136219 701.12863445 C417.92652353 703.81024574 419.21179545 706.33147629 420.53979969 708.87863445 C420.90833561 709.60585201 421.27687153 710.33306957 421.6565752 711.08232403 C422.44396482 712.63356294 423.23583978 714.18253206 424.0318346 715.72937298 C425.6963454 718.96429188 427.33898372 722.21013192 428.98253345 725.45573711 C429.80312924 727.07597942 430.6247913 728.69568214 431.44752979 730.31483746 C436.05538777 739.39164034 440.44022571 748.56821468 444.77026844 757.78048992 C445.85361896 760.04958079 446.97406195 762.29570227 448.11011219 764.5387907 C452.02872598 772.35167325 454.74941028 778.11297381 452.10229969 786.68332195 C450.12400737 791.47961341 448.00255209 794.45460205 443.46950245 797.03410625 C442.57855444 797.54161734 441.68760643 798.04912842 440.76966 798.57201862 C435.73223208 801.2963163 430.64052021 803.89710623 425.51611805 806.45358562 C424.30742514 807.06011159 423.09889827 807.66696855 421.89052296 808.27412701 C418.64043446 809.9058051 415.38785419 811.53245282 412.13459945 813.15780711 C409.40775027 814.52069307 406.68210214 815.88597195 403.95642382 817.25119764 C397.52373645 820.47306685 391.08894926 823.69071307 384.6528368 826.90573406 C378.03324874 830.21250421 371.4173741 833.52661633 364.80325502 836.84430999 C359.10152163 839.70400347 353.39745994 842.55901341 347.69154173 845.41034776 C344.29353447 847.10844855 340.89642423 848.80828272 337.50157452 850.51268864 C334.31044533 852.11457143 331.11643028 853.71055045 327.92017651 855.3021822 C326.20120561 856.15993449 324.48517286 857.02356724 322.76926136 857.88742352 C309.24803629 864.60249474 295.83961635 869.03472812 280.89136219 864.12863445 C263.89791465 857.34185977 257.8328508 844.32905842 250.05078602 828.69040203 C249.38829106 827.36648778 248.72544925 826.04274705 248.06229115 824.71916485 C246.27525127 821.14989703 244.49317767 817.57817141 242.71213841 814.00590634 C240.8314818 810.23572686 238.94654092 806.4676901 237.06218433 802.69935894 C233.8930567 796.36016924 230.72701732 790.01944503 227.56299305 783.67770672 C223.93574533 776.40757251 220.30439114 769.13950211 216.67059213 761.87264043 C212.76773566 754.06761087 208.86795152 746.26104907 204.96902347 738.4540565 C203.86293161 736.23976968 202.75629245 734.02575716 201.64951992 731.81181049 C188.56639792 705.63648477 188.56639792 705.63648477 182.55273914 692.94479656 C175.16698106 677.3710318 167.37861911 661.99451067 159.65463305 646.58671379 C157.44329511 642.17416192 155.23464879 637.76026326 153.02579212 633.34646893 C147.44172198 622.18931851 141.85420407 611.03389622 136.26636219 599.87863445 C130.19610096 587.76019769 124.12647708 575.64144381 118.06071341 563.52075505 C115.43767213 558.27965017 112.81268563 553.03952564 110.18619514 547.80014849 C108.5613359 544.55786948 106.9381204 541.31476968 105.31535816 538.0714407 C104.56179894 536.56619871 103.80754648 535.06130355 103.05255985 533.556777 C102.0247695 531.50838142 100.99943202 529.45877653 99.9747057 527.40884686 C99.39996698 526.26159004 98.82522827 525.11433323 98.23307323 523.93231106 C95.68310419 518.60382503 95.23675834 513.96551883 95.89136219 508.12863445 C98.11369098 503.60166841 100.35064549 501.24723092 104.89136219 499.12863445 C107.91202989 498.70029236 110.9003394 498.72973315 113.94702625 498.75682354 C114.8609253 498.75299898 115.77482435 498.74917441 116.71641731 498.74523395 C119.78009578 498.73594528 122.84332277 498.74794309 125.90698719 498.75973797 C128.10335446 498.75727009 130.29972055 498.75343181 132.49608326 498.74832439 C137.22801093 498.73998133 141.95981827 498.74079857 146.69174671 498.74850941 C154.18127478 498.76008993 161.67064805 498.7479303 169.16016102 498.73189068 C179.66838066 498.71144732 190.17658121 498.69858257 200.68481922 498.69479656 C201.35147 498.69455169 202.01812078 498.69430683 202.7049731 498.69405454 C210.13288682 498.69151178 217.56079923 498.69094015 224.98871326 498.69198895 C227.67745431 498.69232194 230.36619535 498.69260735 233.05493641 498.69284344 C233.71834656 498.69290622 234.3817567 498.69296901 235.06527019 498.6930337 C246.15659687 498.69364008 257.24785301 498.67849545 268.33914852 498.65201038 C275.77610238 498.63525303 283.21274771 498.63698071 290.64970016 498.6528331 C295.29055848 498.65865074 299.93127216 498.64785209 304.57210445 498.63258648 C306.71457381 498.62887572 308.85706791 498.63192323 310.99951458 498.64245701 C332.65127947 498.81377401 332.65127947 498.81377401 350.89136219 488.12863445 C357.31872984 481.31172937 361.02334773 472.97066643 361.32886219 463.56613445 C360.84595439 452.61503175 356.65599975 443.29357734 348.57886219 435.81613445 C342.5023883 430.95495534 335.12077971 428.01206305 327.3353529 427.99441338 C325.96368263 427.98772661 325.96368263 427.98772661 324.56430185 427.98090476 C323.56334596 427.98108912 322.56239007 427.98127348 321.53110218 427.98146343 C319.93172304 427.9759484 319.93172304 427.9759484 318.30003321 427.97032195 C314.71507423 427.95927913 311.13014423 427.95544024 307.54517078 427.9516325 C304.97955705 427.9453683 302.41394423 427.93872154 299.84833241 427.93171978 C292.14057997 427.91248927 284.43283262 427.90189103 276.72506231 427.89299199 C273.09322489 427.88860641 269.46138892 427.88324029 265.82955265 427.87800312 C253.75279957 427.8609922 241.67604739 427.84649879 229.59928417 427.83925438 C226.46633751 427.83734456 223.33339086 427.83542422 220.20044422 427.83346844 C219.42178826 427.8329847 218.6431323 427.83250096 217.84088071 427.83200256 C205.23165208 427.82370506 192.6225184 427.79837231 180.01333122 427.76588776 C167.06095226 427.73279175 154.10862151 427.71480331 141.15620005 427.71161014 C133.88665129 427.70944736 126.61724099 427.7007329 119.3477335 427.67514896 C112.50723049 427.65113012 105.66698016 427.64763224 98.82644367 427.65791035 C96.31826798 427.65840599 93.81008007 427.65207714 91.30194187 427.6383543 C87.87217153 427.62064163 84.44329539 427.62773954 81.01352406 427.64088726 C80.0259525 427.62991801 79.03838094 427.61894877 78.02088296 427.60764712 C70.44878437 427.67750609 63.53662905 429.25391181 57.48901844 434.0231657 C56.98241688 434.65609539 56.47581532 435.28902508 55.95386219 435.94113445 C55.42921375 436.56632977 54.90456532 437.19152508 54.36401844 437.8356657 C50.57455961 443.73596367 48.9887225 450.13198998 47.41797352 456.88180828 C47.18934022 457.84116944 46.96070692 458.80053061 46.72514534 459.78896332 C45.96861337 462.96981907 45.22102363 466.15270698 44.47339344 469.3356657 C43.93856367 471.59185611 43.40314075 473.84790599 42.86716175 476.10382366 C41.72965435 480.8961499 40.59586498 485.68933437 39.46494007 490.48321819 C37.7039339 497.94609062 35.93218544 505.40638509 34.15820789 512.86618328 C30.0374196 530.19972083 25.92337195 547.53485674 21.82278824 564.87318611 C19.91539983 572.93811401 18.00250202 581.00165449 16.0725975 589.0612278 C15.09113394 593.16157369 14.12023507 597.26420762 13.15809345 601.36912823 C12.43718179 604.43066452 11.70024476 607.4883428 10.96558094 610.5466032 C10.72395222 611.59262707 10.48232349 612.63865093 10.23337269 613.71637249 C7.89660102 623.30820709 4.67354868 632.72809448 -4.10863781 638.12863445 C-10.82389206 641.89514578 -17.30618206 641.56566004 -24.87157726 641.54855633 C-26.26524056 641.55590438 -27.65889779 641.56449274 -29.0525465 641.57422161 C-32.82339859 641.59637152 -36.59403172 641.59937152 -40.36493993 641.5974741 C-43.52073501 641.59735407 -46.67648425 641.60593153 -49.83226651 641.61425161 C-57.28273868 641.63346301 -64.73309883 641.63637812 -72.18358898 641.62961102 C-79.85052769 641.62297496 -87.51698473 641.64582193 -95.18382579 641.68292475 C-101.78282278 641.7136923 -108.3816654 641.72497407 -114.98073262 641.72108793 C-118.91472851 641.71902733 -122.84834962 641.72439188 -126.78227711 641.74898052 C-130.48517887 641.77136191 -134.18730186 641.76927684 -137.89020824 641.749053 C-139.88257624 641.74405675 -141.87495951 641.76358006 -143.86722851 641.78406048 C-151.68009462 641.71149758 -157.58004339 640.58969868 -164.10863781 636.12863445 C-166.36254406 633.7419157 -166.36254406 633.7419157 -167.67113781 631.44113445 C-168.3536964 630.29064617 -168.3536964 630.29064617 -169.05004406 629.1169157 C-175.63167797 616.75510146 -168.98177802 599.39974648 -165.82738781 586.8044157 C-165.26440024 584.50189715 -164.703004 582.19898901 -164.1430769 579.8957243 C-162.94429126 574.9782526 -161.73498101 570.06354053 -160.51711559 565.1507597 C-158.57648271 557.32164398 -156.65981902 549.48681092 -154.74706554 541.65085125 C-154.09531552 538.98212092 -153.44335276 536.31344262 -152.79127026 533.64479351 C-152.62940336 532.98232398 -152.46753646 532.31985445 -152.3007645 531.63731009 C-151.14817185 526.92173833 -149.99212368 522.20702182 -148.83433056 517.49272442 C-143.3458425 495.14298066 -137.94954411 472.77183994 -132.59508801 450.38962078 C-131.16908106 444.4300638 -129.73834716 438.47164751 -128.30688 432.51340008 C-123.62376134 413.01507408 -118.95794678 393.51273159 -114.3228054 374.00294495 C-112.65128864 366.96738047 -110.97893685 359.9320186 -109.30311108 352.89747906 C-109.05551598 351.85815988 -109.05551598 351.85815988 -108.80291897 350.79784435 C-107.97235709 347.31173918 -107.14155996 343.82569017 -106.31059265 340.33968163 C-104.51910902 332.82269583 -102.73329271 325.30440631 -100.95467192 317.78436649 C-99.5952102 312.03875894 -98.22665508 306.29534146 -96.85487843 300.55266094 C-96.29078687 298.18452491 -95.72973988 295.8156613 -95.17195225 293.44603252 C-94.4040579 290.18565602 -93.62532698 286.92804769 -92.84398937 283.67087078 C-92.62484403 282.7286432 -92.40569868 281.78641562 -92.17991257 280.81563568 C-89.73045313 270.71375881 -86.13548145 260.67309782 -77.01879406 254.77707195 C-71.38778273 251.86194877 -66.74377173 251.0037689 -60.37902069 250.99834919 C-59.70006383 250.99640576 -59.02110698 250.99446233 -58.32157567 250.99246001 C-56.03592237 250.98712612 -53.75032925 250.98890416 -51.46467113 250.99060345 C-49.81358751 250.98818584 -48.16250449 250.98532372 -46.51142234 250.98205411 C-41.96580109 250.97429131 -37.42019493 250.97268118 -32.87456787 250.97200298 C-27.97530175 250.97016497 -23.07604449 250.96255903 -18.17678356 250.95552349 C-9.68360346 250.94399134 -1.19042534 250.93575039 7.30276012 250.92940426 C20.72653864 250.91908399 34.15029236 250.89852181 47.57405567 250.8762846 C52.16553108 250.86880465 56.75700659 250.86139095 61.34848213 250.85399723 C62.49599329 250.85214666 63.64350445 250.8502961 64.82578867 250.84838945 C77.89199631 250.82745682 90.95820669 250.80863133 104.02441883 250.79074383 C105.21903255 250.78910565 106.41364628 250.78746746 107.64446042 250.78577964 C127.00213544 250.7594965 146.35981236 250.74085228 165.71749767 250.72415192 C185.58669826 250.70673327 205.45586139 250.67789011 225.32503206 250.63926256 C237.58296747 250.61585886 249.84084181 250.60186764 262.09879974 250.59993492 C270.49989212 250.59782606 278.90092375 250.58490112 287.30198886 250.5634556 C292.14962997 250.55142434 296.99715047 250.54427678 301.84480572 250.55016804 C306.28437728 250.55546678 310.72370292 250.54697572 315.16323344 250.52761166 C316.76756387 250.52304025 318.37191837 250.52350095 319.97624388 250.52956004 C332.1638535 250.57147361 342.33151467 249.39223146 351.89136219 241.12863445 C358.15597727 233.88133466 361.59324849 225.34800014 361.23511219 215.73800945 C359.85624341 205.27114192 354.71290036 197.83917609 346.64136219 191.31613445 C337.37054243 185.3857057 326.51839198 185.69854306 315.91019154 185.75009441 C314.3079605 185.74679875 312.70573175 185.74218163 311.10350788 185.73636675 C306.72553968 185.72421033 302.34776633 185.73049475 297.96979856 185.73987174 C293.23909495 185.74669008 288.50842634 185.73612457 283.77772999 185.7275877 C275.58858341 185.71504209 267.39948962 185.71304099 259.21033573 185.71794415 C247.36486498 185.72475894 235.51947371 185.71222362 223.67401718 185.69443697 C204.44666431 185.66581137 185.21932004 185.64827984 165.99194813 185.63986492 C164.84211228 185.63935774 163.69227643 185.63885056 162.50759707 185.63832802 C153.17485639 185.63429483 143.84211552 185.63080009 134.50937462 185.62733078 C126.34243286 185.62427265 118.17549123 185.62100063 110.00854969 185.61740398 C108.85829938 185.61690137 107.70804906 185.61639875 106.52294268 185.61588091 C87.35867349 185.60714368 68.19443391 185.58672424 49.03018463 185.55792189 C37.21013899 185.54072678 25.39017701 185.53416382 13.5701205 185.54122794 C5.47889684 185.54539989 -2.61227395 185.5390814 -10.7034853 185.5244292 C-15.37448971 185.51635394 -20.04536309 185.5132893 -24.71636677 185.52325153 C-28.98952114 185.53228954 -33.26243146 185.52766149 -37.5355648 185.5120371 C-39.083765 185.50883875 -40.63198566 185.51074947 -42.18017124 185.51820248 C-44.28047957 185.52759545 -46.37993583 185.51862847 -48.48020267 185.50501537 C-49.64795542 185.50474299 -50.81570816 185.50447061 -52.01884735 185.50418997 C-56.59612952 184.94783394 -59.14959304 183.08767922 -62.35863781 179.87863445 C-65.22187333 175.37926435 -65.44491594 171.02661994 -64.41770458 165.88337994 C-64.04296135 164.27839787 -63.6544678 162.67658622 -63.25487804 161.07760906 C-63.04472876 160.19325994 -62.83457947 159.30891083 -62.61806202 158.39776325 C-61.91704127 155.46004215 -61.19835998 152.5269373 -60.47973156 149.5934782 C-59.97692873 147.50123443 -59.47536338 145.40869294 -58.97495556 143.31587505 C-57.9107459 138.87215048 -56.83976859 134.430132 -55.76409435 129.98916912 C-54.12617116 123.21686599 -52.51817204 116.43770973 -50.91771984 109.65646648 C-48.5047661 99.43684725 -46.07658744 89.22098689 -43.63478565 79.00822163 C-42.24666986 73.20145124 -40.86259069 67.39377936 -39.48729992 61.58395672 C-38.12167125 55.81536602 -36.74646087 50.04913922 -35.36437321 44.28447056 C-34.84790572 42.12322323 -34.33478458 39.96117312 -33.82523823 37.79828358 C-33.12039162 34.80919064 -32.40323838 31.82330317 -31.6831007 28.83786297 C-31.48099483 27.96798748 -31.27888897 27.09811199 -31.07065868 26.20187664 C-29.13596763 18.28581852 -26.10622364 9.44470174 -19.03051281 4.7497282 C-12.55247384 0.98517245 -7.51878385 0.00419962 0 0 Z " fill="#000000" transform="translate(325.1086378097534,126.87136554718018)"/>
</svg>
